<?xml version="1.0" encoding="iso-8859-1"?>
<!-- Generator: Adobe Illustrator 16.0.0, SVG Export Plug-In . SVG Version: 6.00 Build 0)  -->
<!DOCTYPE svg PUBLIC "-//W3C//DTD SVG 1.1//EN" "http://www.w3.org/Graphics/SVG/1.1/DTD/svg11.dtd">
<svg version="1.1" id="Capa_1" xmlns="http://www.w3.org/2000/svg" xmlns:xlink="http://www.w3.org/1999/xlink" x="0px" y="0px"
	 width="355.725px" height="355.725px" viewBox="0 0 355.725 355.725" style="enable-background:new 0 0 355.725 355.725;"
	 xml:space="preserve">
<g>
	<g>
		<g>
			<path d="M265.785,84.689c23.347,0,42.34-18.997,42.34-42.343C308.125,18.993,289.131,0,265.785,0s-42.334,18.993-42.334,42.346
				C223.451,65.692,242.438,84.689,265.785,84.689z M265.785,18.303c13.259,0,24.055,10.794,24.055,24.049
				c0,13.265-10.796,24.049-24.055,24.049s-24.031-10.785-24.031-24.049C241.753,29.097,252.526,18.303,265.785,18.303z"/>
		</g>
		<g>
			<path d="M265.785,92.916c-23.347,0-42.334,18.993-42.334,42.349c0,23.347,18.987,42.334,42.334,42.334s42.34-18.988,42.34-42.334
				C308.125,111.909,289.131,92.916,265.785,92.916z M265.785,159.305c-13.259,0-24.031-10.785-24.031-24.05
				c0-13.268,10.772-24.058,24.031-24.058s24.055,10.79,24.055,24.058C289.839,148.526,279.043,159.305,265.785,159.305z"/>
		</g>
		<g>
			<path d="M265.785,181.057c-17.582,0-33.207,11.001-39.403,27.256c-4.87-0.378-10.755-0.78-16.171-1.075
				c-5.482-0.3-11.331-5.014-16.964-9.596c-2.942-2.407-5.734-4.642-8.151-6.179c-4.204-3.038-8.041-6.461-11.442-9.499
				c-9.451-8.38-20.149-17.877-35.983-17.877l-1.591,0.045c-1.444-0.057-2.946-0.075-4.489-0.075l-0.781,0.006
				c-4.71-18.483-21.515-31.9-40.872-31.9c-23.344,0-42.343,18.996-42.343,42.343c0,23.353,18.999,42.34,42.343,42.34
				c20.936,0,38.35-15.108,41.622-35.603l0.367,1.999l5.485-0.864c8.725,0,14.549,4.792,24.154,13.33
				c3.936,3.483,7.992,7.098,13.231,10.869c2.189,1.405,4.489,3.297,6.936,5.272c7.164,5.812,16.078,13.054,27.511,13.648
				c4.768,0.253,9.884,0.618,14.315,0.931c1.561,21.941,19.899,39.32,42.237,39.32c23.341,0,42.334-18.994,42.334-42.347
				C308.13,200.044,289.131,181.057,265.785,181.057z M265.785,247.434c-13.259,0-24.031-10.784-24.031-24.037
				s10.772-24.049,24.031-24.049s24.055,10.796,24.055,24.049S279.043,247.434,265.785,247.434z M89.931,198.549
				c-13.265,0-24.049-10.803-24.049-24.049c0-13.265,10.785-24.049,24.049-24.049c12.733,0,23.235,10.022,23.899,22.53l0.012,2.753
				C113.167,188.526,102.665,198.549,89.931,198.549z"/>
		</g>
		<g>
			<path d="M265.785,271.045c-23.347,0-42.334,18.987-42.334,42.34s18.987,42.34,42.334,42.34s42.34-18.987,42.34-42.34
				S289.131,271.045,265.785,271.045z M265.785,337.434c-13.259,0-24.031-10.797-24.031-24.049
				c0-13.253,10.772-24.044,24.031-24.044s24.055,10.791,24.055,24.044C289.839,326.637,279.043,337.434,265.785,337.434z"/>
		</g>
	</g>
</g>
<g>
</g>
<g>
</g>
<g>
</g>
<g>
</g>
<g>
</g>
<g>
</g>
<g>
</g>
<g>
</g>
<g>
</g>
<g>
</g>
<g>
</g>
<g>
</g>
<g>
</g>
<g>
</g>
<g>
</g>
</svg>
